<svg width="20" height="20" viewBox="0 0 20 20" xmlns="http://www.w3.org/2000/svg">
<path d="M11.1753 9.99995L15.5919 5.59162C15.7489 5.4347 15.837 5.22187 15.837 4.99995C15.837 4.77803 15.7489 4.5652 15.5919 4.40828C15.435 4.25136 15.2222 4.16321 15.0003 4.16321C14.7784 4.16321 14.5655 4.25136 14.4086 4.40828L10.0003 8.82495L5.59194 4.40828C5.43502 4.25136 5.22219 4.16321 5.00027 4.16321C4.77836 4.16321 4.56553 4.25136 4.40861 4.40828C4.25169 4.5652 4.16353 4.77803 4.16353 4.99995C4.16353 5.22187 4.25169 5.4347 4.40861 5.59162L8.82527 9.99995L4.40861 14.4083C4.3305 14.4858 4.26851 14.5779 4.2262 14.6795C4.18389 14.781 4.16211 14.8899 4.16211 15C4.16211 15.11 4.18389 15.2189 4.2262 15.3204C4.26851 15.422 4.3305 15.5141 4.40861 15.5916C4.48608 15.6697 4.57824 15.7317 4.67979 15.774C4.78134 15.8163 4.89026 15.8381 5.00027 15.8381C5.11028 15.8381 5.21921 15.8163 5.32076 15.774C5.4223 15.7317 5.51447 15.6697 5.59194 15.5916L10.0003 11.175L14.4086 15.5916C14.4861 15.6697 14.5782 15.7317 14.6798 15.774C14.7813 15.8163 14.8903 15.8381 15.0003 15.8381C15.1103 15.8381 15.2192 15.8163 15.3208 15.774C15.4223 15.7317 15.5145 15.6697 15.5919 15.5916C15.67 15.5141 15.732 15.422 15.7744 15.3204C15.8167 15.2189 15.8384 15.11 15.8384 15C15.8384 14.8899 15.8167 14.781 15.7744 14.6795C15.732 14.5779 15.67 14.4858 15.5919 14.4083L11.1753 9.99995Z" />
</svg>
