<svg width="20" height="20" viewBox="0 0 20 20" fill="none" xmlns="http://www.w3.org/2000/svg">
<path fill-rule="evenodd" clip-rule="evenodd" d="M16 20H4C1.791 20 0 18.209 0 15.999V6C0 3.791 1.791 2 4 2H5V0H7V2H13V0H15V2H16C18.209 2 20 3.791 20 6V15.999C20 18.209 18.209 20 16 20ZM18 6C18 4.897 17.103 4 16 4H15V6H13V4H7V6H5V4H4C2.896 4 2 4.897 2 6V15.999C2 17.103 2.896 18 4 18H16C17.103 18 18 17.103 18 15.999V6ZM7 15.001H5V13.001V11.001V9.001H7H13H15V11.001V13.001V15.001H13H7ZM13 11.001H7V13.001H13V11.001Z" fill="#BABAC0"/>
</svg>
