<svg width="20" height="20" viewBox="0 0 20 20" fill="none" xmlns="http://www.w3.org/2000/svg">
<path d="M17.1514 4.80799C17.1514 4.40287 16.9905 4.01434 16.704 3.72787C16.4176 3.44141 16.029 3.28047 15.6239 3.28047H12.8133C12.673 2.58986 12.2984 1.96896 11.7527 1.52298C11.2071 1.077 10.524 0.833374 9.81933 0.833374C9.11462 0.833374 8.43158 1.077 7.88594 1.52298C7.3403 1.96896 6.96562 2.58986 6.82538 3.28047H4.01474C3.63607 3.28364 3.27208 3.42735 2.99338 3.68372C2.71468 3.94009 2.54114 4.29084 2.50643 4.66793C2.47172 5.04502 2.57832 5.42155 2.80554 5.72449C3.03275 6.02743 3.3644 6.23517 3.73612 6.30741L4.22798 16.6261C4.25945 17.3112 4.554 17.9576 5.05026 18.4309C5.54652 18.9042 6.20623 19.1677 6.89198 19.1667H12.7467C13.4324 19.1677 14.0921 18.9042 14.5884 18.4309C15.0847 17.9576 15.3792 17.3112 15.4107 16.6261L15.8995 6.30741C16.2504 6.24304 16.5678 6.05786 16.7964 5.78397C17.0251 5.51009 17.1507 5.1648 17.1514 4.80799ZM9.81933 2.05845C10.1971 2.06002 10.5651 2.17826 10.8731 2.39701C11.1811 2.61575 11.414 2.92431 11.5399 3.28047H8.09873C8.22464 2.92431 8.45753 2.61575 8.76552 2.39701C9.07351 2.17826 9.44156 2.06002 9.81933 2.05845ZM14.1899 16.5687C14.1729 16.9398 14.0133 17.29 13.7444 17.5464C13.4756 17.8027 13.1182 17.9454 12.7467 17.9447H6.89198C6.5205 17.9454 6.16307 17.8027 5.89421 17.5464C5.62534 17.29 5.46578 16.9398 5.44878 16.5687L4.96119 6.33552H14.6762L14.1899 16.5687ZM15.6239 5.1135H4.01474C3.93372 5.1135 3.85601 5.08131 3.79872 5.02402C3.74142 4.96673 3.70924 4.88902 3.70924 4.80799C3.70924 4.72697 3.74142 4.64926 3.79872 4.59197C3.85601 4.53468 3.93372 4.50249 4.01474 4.50249H15.6239C15.7049 4.50249 15.7826 4.53468 15.8399 4.59197C15.8972 4.64926 15.9294 4.72697 15.9294 4.80799C15.9294 4.88902 15.8972 4.96673 15.8399 5.02402C15.7826 5.08131 15.7049 5.1135 15.6239 5.1135Z" fill="#BABAC0"/>
<path d="M7.98601 15.5007C8.14806 15.5007 8.30347 15.4363 8.41806 15.3217C8.53264 15.2071 8.59702 15.0517 8.59702 14.8897V8.77959C8.59702 8.61754 8.53264 8.46213 8.41806 8.34754C8.30347 8.23295 8.14806 8.16858 7.98601 8.16858C7.82396 8.16858 7.66855 8.23295 7.55396 8.34754C7.43937 8.46213 7.375 8.61754 7.375 8.77959V14.8897C7.375 15.0517 7.43937 15.2071 7.55396 15.3217C7.66855 15.4363 7.82396 15.5007 7.98601 15.5007Z" fill="#BABAC0"/>
<path d="M11.652 15.5007C11.8141 15.5007 11.9695 15.4363 12.0841 15.3217C12.1987 15.2071 12.263 15.0517 12.263 14.8897V8.77959C12.263 8.61754 12.1987 8.46213 12.0841 8.34754C11.9695 8.23295 11.8141 8.16858 11.652 8.16858C11.49 8.16858 11.3346 8.23295 11.22 8.34754C11.1054 8.46213 11.041 8.61754 11.041 8.77959V14.8897C11.041 15.0517 11.1054 15.2071 11.22 15.3217C11.3346 15.4363 11.49 15.5007 11.652 15.5007Z" fill="#BABAC0"/>
</svg>
