<svg width="6" height="20" viewBox="0 0 6 20" fill="none" xmlns="http://www.w3.org/2000/svg">
<g clip-path="url(#clip0_221_32334)">
<path fill-rule="evenodd" clip-rule="evenodd" d="M5.72701 2.72727C5.72701 4.23364 4.50519 5.45455 2.99973 5.45455C1.49428 5.45455 0.272461 4.23364 0.272461 2.72727C0.272461 1.22091 1.49428 0 2.99973 0C4.50519 0 5.72701 1.22091 5.72701 2.72727ZM2.09064 2.72727C2.09064 3.23 2.49701 3.63636 2.99973 3.63636C3.50155 3.63636 3.90882 3.23 3.90882 2.72727C3.90882 2.22545 3.50064 1.81818 2.99973 1.81818C2.49701 1.81818 2.09064 2.22545 2.09064 2.72727ZM5.72701 10C5.72701 11.5064 4.50519 12.7273 2.99973 12.7273C1.49428 12.7273 0.272461 11.5064 0.272461 10C0.272461 8.49364 1.49428 7.27273 2.99973 7.27273C4.50519 7.27273 5.72701 8.49364 5.72701 10ZM2.09064 10C2.09064 10.5027 2.49701 10.9091 2.99973 10.9091C3.50155 10.9091 3.90882 10.5027 3.90882 10C3.90882 9.49818 3.50064 9.09091 2.99973 9.09091C2.49701 9.09091 2.09064 9.49818 2.09064 10ZM5.72701 17.2727C5.72701 18.7791 4.50519 20 2.99973 20C1.49428 20 0.272461 18.7791 0.272461 17.2727C0.272461 15.7673 1.49428 14.5455 2.99973 14.5455C4.50519 14.5455 5.72701 15.7673 5.72701 17.2727ZM2.09064 17.2727C2.09064 17.7755 2.49701 18.1818 2.99973 18.1818C3.50155 18.1818 3.90882 17.7755 3.90882 17.2727C3.90882 16.7709 3.50064 16.3636 2.99973 16.3636C2.49701 16.3636 2.09064 16.7709 2.09064 17.2727Z" fill="#BABAC0"/>
</g>
<defs>
<clipPath id="clip0_221_32334">
<rect width="20" height="5.45455" fill="white" transform="translate(0.272461 20) rotate(-90)"/>
</clipPath>
</defs>
</svg>
