<svg width="24" height="24" viewBox="0 0 24 24" fill="none" xmlns="http://www.w3.org/2000/svg">
<path d="M12.2286 1C11.7078 1 11.2857 1.42215 11.2857 1.94286V16.7437L7.53393 13.2081C7.18385 12.8343 6.50763 12.8231 6.15893 13.1983C5.80489 13.5792 5.93129 14.2326 6.2375 14.5733L11.5804 19.6019C11.7442 19.7559 12.0039 19.8484 12.2286 19.8572C12.4794 19.8572 12.6939 19.7739 12.8768 19.6019L18.2196 14.5733C18.5382 14.2465 18.6509 13.5697 18.2982 13.1983C17.9455 12.8269 17.2455 12.8864 16.9232 13.2081L13.1714 16.7437V1.94286C13.1714 1.42215 12.7493 1 12.2286 1ZM5.94286 21.1143C5.42213 21.1143 5 21.5364 5 22.0571C5 22.5779 5.42213 23 5.94286 23H18.5143C19.035 23 19.4571 22.5779 19.4571 22.0571C19.4571 21.5364 19.035 21.1143 18.5143 21.1143H5.94286Z" fill="#FBC100"/>
</svg>
