<svg width="20" height="20" viewBox="0 0 20 20" fill="none" xmlns="http://www.w3.org/2000/svg">
<path d="M17.2583 6.54995L13.45 2.74162C13.3725 2.66351 13.2804 2.60151 13.1788 2.55921C13.0773 2.5169 12.9684 2.49512 12.8583 2.49512C12.7483 2.49512 12.6394 2.5169 12.5379 2.55921C12.4363 2.60151 12.3442 2.66351 12.2667 2.74162L2.74168 12.2666C2.66445 12.3445 2.60334 12.4368 2.56187 12.5384C2.5204 12.6399 2.49938 12.7486 2.50001 12.8583V16.6666C2.50001 16.8876 2.58781 17.0996 2.74409 17.2559C2.90037 17.4122 3.11233 17.5 3.33335 17.5H7.14168C7.25135 17.5006 7.36007 17.4796 7.4616 17.4381C7.56313 17.3966 7.65548 17.3355 7.73335 17.2583L17.2583 7.73328C17.3365 7.65581 17.3985 7.56365 17.4408 7.4621C17.4831 7.36055 17.5048 7.25163 17.5048 7.14162C17.5048 7.03161 17.4831 6.92269 17.4408 6.82114C17.3985 6.71959 17.3365 6.62742 17.2583 6.54995ZM6.80001 15.8333H4.16668V13.2L10.3167 7.04995L12.95 9.68328L6.80001 15.8333ZM14.1667 8.50828L11.4917 5.87495L12.8583 4.50828L15.4917 7.14162L14.1667 8.50828Z" fill="#BABAC0"/>
</svg>
