<svg width="24" height="24" viewBox="0 0 24 24" fill="none" xmlns="http://www.w3.org/2000/svg">
<path d="M12.25 12C13.3378 12 14.4012 11.6774 15.3056 11.0731C16.2101 10.4687 16.9151 9.60976 17.3313 8.60476C17.7476 7.59977 17.8565 6.4939 17.6443 5.42701C17.4321 4.36011 16.9083 3.3801 16.1391 2.61092C15.3699 1.84173 14.3899 1.3179 13.323 1.10568C12.2561 0.893465 11.1502 1.00238 10.1452 1.41867C9.14025 1.83495 8.28126 2.5399 7.67692 3.44437C7.07257 4.34884 6.75 5.41221 6.75 6.5C6.75146 7.95825 7.33139 9.35635 8.36252 10.3875C9.39366 11.4186 10.7918 11.9985 12.25 12ZM12.25 2.83334C12.9752 2.83334 13.6841 3.04838 14.2871 3.45128C14.8901 3.85418 15.36 4.42683 15.6376 5.09683C15.9151 5.76683 15.9877 6.50407 15.8462 7.21533C15.7047 7.9266 15.3555 8.57994 14.8427 9.09273C14.3299 9.60552 13.6766 9.95474 12.9653 10.0962C12.2541 10.2377 11.5168 10.1651 10.8468 9.88756C10.1768 9.61004 9.60418 9.14007 9.20128 8.53709C8.79838 7.93411 8.58333 7.2252 8.58333 6.5C8.58333 5.52754 8.96964 4.59491 9.65727 3.90728C10.3449 3.21964 11.2775 2.83334 12.25 2.83334Z" />
<path d="M12.25 13.8334C10.0627 13.8358 7.9657 14.7058 6.41905 16.2524C4.8724 17.7991 4.00243 19.8961 4 22.0834C4 22.3265 4.09658 22.5596 4.26849 22.7316C4.44039 22.9035 4.67355 23 4.91667 23C5.15978 23 5.39294 22.9035 5.56485 22.7316C5.73676 22.5596 5.83333 22.3265 5.83333 22.0834C5.83333 20.3816 6.50937 18.7495 7.71273 17.5461C8.91609 16.3427 10.5482 15.6667 12.25 15.6667C13.9518 15.6667 15.5839 16.3427 16.7873 17.5461C17.9906 18.7495 18.6667 20.3816 18.6667 22.0834C18.6667 22.3265 18.7632 22.5596 18.9352 22.7316C19.1071 22.9035 19.3402 23 19.5833 23C19.8264 23 20.0596 22.9035 20.2315 22.7316C20.4034 22.5596 20.5 22.3265 20.5 22.0834C20.4976 19.8961 19.6276 17.7991 18.081 16.2524C16.5343 14.7058 14.4373 13.8358 12.25 13.8334Z" />
</svg>
