<svg width="20" height="20" viewBox="0 0 20 20" fill="none" xmlns="http://www.w3.org/2000/svg">
<path d="M10.0007 1.66675C4.95359 1.66675 0.833984 5.00988 0.833984 9.10792C0.833984 11.3942 2.14967 13.5726 4.34967 14.9746L3.5732 16.5922C3.42222 16.8942 3.48693 17.2609 3.70261 17.5197C3.87516 17.6922 4.09085 17.8001 4.3281 17.8001C4.41438 17.8001 4.52222 17.7785 4.60849 17.7569L8.33987 16.4197C8.87908 16.506 9.43987 16.5491 10.0007 16.5491C15.0477 16.5491 19.1673 13.206 19.1673 9.10792C19.1673 5.00988 15.0477 1.66675 10.0007 1.66675ZM10.0007 15.255C9.46144 15.255 8.94379 15.2118 8.42614 15.1256C8.29673 15.104 8.14575 15.1256 8.01634 15.1687L5.21242 16.1609L5.68693 15.1471C5.88104 14.7589 5.73006 14.2628 5.34183 14.0471C3.31438 12.8824 2.1281 11.0275 2.1281 9.08636C2.1281 5.70008 5.66536 2.9393 10.0007 2.9393C14.3359 2.9393 17.8732 5.70008 17.8732 9.08636C17.8732 12.4726 14.3359 15.255 10.0007 15.255Z" fill="#336FEE"/>
</svg>
