<svg width="24" height="24" viewBox="0 0 24 24" fill="none" xmlns="http://www.w3.org/2000/svg">
<path d="M12.0002 7.48004C11.8686 7.47928 11.7381 7.5045 11.6163 7.55427C11.4944 7.60403 11.3836 7.67736 11.2902 7.77004L5.29019 13.77C5.19695 13.8633 5.12299 13.974 5.07253 14.0958C5.02207 14.2176 4.99609 14.3482 4.99609 14.48C4.99609 14.6119 5.02207 14.7425 5.07253 14.8643C5.12299 14.9861 5.19695 15.0968 5.29019 15.19C5.38342 15.2833 5.49411 15.3572 5.61594 15.4077C5.73776 15.4582 5.86833 15.4841 6.00019 15.4841C6.13204 15.4841 6.26261 15.4582 6.38443 15.4077C6.50626 15.3572 6.61695 15.2833 6.71019 15.19L12.0002 9.89004L17.2902 15.19C17.4785 15.3783 17.7339 15.4841 18.0002 15.4841C18.2665 15.4841 18.5219 15.3783 18.7102 15.19C18.8985 15.0017 19.0043 14.7463 19.0043 14.48C19.0043 14.2137 18.8985 13.9583 18.7102 13.77L12.7102 7.77004C12.6167 7.67736 12.5059 7.60403 12.3841 7.55427C12.2623 7.5045 12.1318 7.47928 12.0002 7.48004Z" fill="#333333"/>
</svg>
