<svg width="20" height="20" viewBox="0 0 20 20" fill="none" xmlns="http://www.w3.org/2000/svg">
<path d="M3.88954 16.875H10.7645C10.9671 16.875 11.1614 16.7946 11.3047 16.6513C11.4479 16.5081 11.5284 16.3138 11.5284 16.1112C11.5284 15.9086 11.4479 15.7143 11.3047 15.571C11.1614 15.4278 10.9671 15.3473 10.7645 15.3473H3.88954C3.48435 15.3473 3.09575 15.1863 2.80924 14.8998C2.52272 14.6133 2.36176 14.2247 2.36176 13.8195V6.94449C2.36176 6.5393 2.52272 6.15071 2.80924 5.86419C3.09575 5.57768 3.48435 5.41672 3.88954 5.41672H5.41732C5.55923 5.41682 5.69837 5.37739 5.81913 5.30284C5.93989 5.22829 6.03749 5.12158 6.101 4.99467L7.20673 2.78321C7.27009 2.65659 7.3674 2.55007 7.48779 2.47554C7.60817 2.40101 7.74691 2.36141 7.8885 2.36116H10.585C10.7266 2.36141 10.8653 2.40101 10.9857 2.47554C11.1061 2.55007 11.2034 2.65659 11.2668 2.78321L12.3725 4.99467C12.436 5.12158 12.5336 5.22829 12.6544 5.30284C12.7752 5.37739 12.9143 5.41682 13.0562 5.41672H14.584C14.9892 5.41672 15.3778 5.57768 15.6643 5.86419C15.9508 6.15071 16.1118 6.5393 16.1118 6.94449V10.7639C16.1118 10.9665 16.1922 11.1608 16.3355 11.3041C16.4788 11.4473 16.6731 11.5278 16.8757 11.5278C17.0782 11.5278 17.2725 11.4473 17.4158 11.3041C17.5591 11.1608 17.6395 10.9665 17.6395 10.7639V6.94449C17.6395 6.13411 17.3176 5.35692 16.7446 4.78389C16.1716 4.21086 15.3944 3.88894 14.584 3.88894H13.5279L12.6342 2.09953C12.4448 1.71824 12.1526 1.39757 11.7904 1.1738C11.4283 0.950033 11.0107 0.832111 10.585 0.833384H7.8885C7.4628 0.832111 7.04525 0.950033 6.6831 1.1738C6.32096 1.39757 6.02868 1.71824 5.83937 2.09953L4.94562 3.88894H3.88954C3.07916 3.88894 2.30196 4.21086 1.72894 4.78389C1.15591 5.35692 0.833984 6.13411 0.833984 6.94449V13.8195C0.833984 14.6299 1.15591 15.4071 1.72894 15.9801C2.30196 16.5531 3.07916 16.875 3.88954 16.875Z" fill="white"/>
<path d="M9.23742 6.18066C8.482 6.18066 7.74355 6.40467 7.11545 6.82436C6.48734 7.24404 5.99779 7.84056 5.70871 8.53847C5.41962 9.23638 5.34399 10.0043 5.49136 10.7452C5.63873 11.4861 6.0025 12.1667 6.53666 12.7009C7.07082 13.235 7.75138 13.5988 8.49228 13.7462C9.23318 13.8935 10.0011 13.8179 10.6991 13.5288C11.397 13.2397 11.9935 12.7502 12.4132 12.1221C12.8329 11.494 13.0569 10.7555 13.0569 10.0001C13.0569 8.98713 12.6545 8.01564 11.9382 7.29935C11.2219 6.58307 10.2504 6.18066 9.23742 6.18066V6.18066ZM9.23742 12.2918C8.78417 12.2918 8.3411 12.1574 7.96423 11.9056C7.58737 11.6537 7.29364 11.2958 7.12019 10.8771C6.94674 10.4583 6.90136 9.99756 6.98978 9.55303C7.07821 9.10849 7.29647 8.70015 7.61696 8.37965C7.93746 8.05916 8.34579 7.8409 8.79033 7.75247C9.23487 7.66405 9.69565 7.70943 10.1144 7.88288C10.5331 8.05633 10.8911 8.35006 11.1429 8.72693C11.3947 9.10379 11.5291 9.54686 11.5291 10.0001C11.5291 10.6079 11.2876 11.1908 10.8579 11.6206C10.4281 12.0503 9.8452 12.2918 9.23742 12.2918V12.2918Z" fill="white"/>
<path d="M18.4039 15.3473H16.8761V13.8196C16.8761 13.617 16.7956 13.4227 16.6523 13.2794C16.5091 13.1361 16.3148 13.0557 16.1122 13.0557C15.9096 13.0557 15.7153 13.1361 15.572 13.2794C15.4288 13.4227 15.3483 13.617 15.3483 13.8196V15.3473H13.8205C13.6179 15.3473 13.4236 15.4278 13.2804 15.5711C13.1371 15.7143 13.0566 15.9086 13.0566 16.1112C13.0566 16.3138 13.1371 16.5081 13.2804 16.6514C13.4236 16.7946 13.6179 16.8751 13.8205 16.8751H15.3483V18.4029C15.3483 18.6055 15.4288 18.7998 15.572 18.943C15.7153 19.0863 15.9096 19.1668 16.1122 19.1668C16.3148 19.1668 16.5091 19.0863 16.6523 18.943C16.7956 18.7998 16.8761 18.6055 16.8761 18.4029V16.8751H18.4039C18.6065 16.8751 18.8008 16.7946 18.944 16.6514C19.0873 16.5081 19.1678 16.3138 19.1678 16.1112C19.1678 15.9086 19.0873 15.7143 18.944 15.5711C18.8008 15.4278 18.6065 15.3473 18.4039 15.3473Z" fill="white"/>
</svg>
