<svg width="18" height="18" viewBox="0 0 18 18" fill="none" xmlns="http://www.w3.org/2000/svg">
<path d="M5.25448 17.2482C5.41043 17.2486 5.5649 17.2181 5.70904 17.1586C5.85317 17.099 5.98411 17.0116 6.09432 16.9013L13.1526 9.84115C13.3751 9.61861 13.5 9.31685 13.5 9.00222C13.5 8.68759 13.3751 8.38583 13.1526 8.16329L6.12171 1.13237C6.01337 1.01484 5.88239 0.920412 5.73666 0.854749C5.59092 0.789086 5.43341 0.753543 5.2736 0.750252C5.11379 0.74696 4.95496 0.77599 4.80664 0.835597C4.65832 0.895204 4.52357 0.984161 4.41048 1.09713C4.29739 1.2101 4.20829 1.34475 4.14852 1.493C4.08875 1.64125 4.05954 1.80006 4.06266 1.95987C4.06578 2.11969 4.10115 2.27723 4.16666 2.42304C4.23216 2.56885 4.32645 2.69993 4.44386 2.8084L10.6349 9.00131L4.41464 15.2234C4.2484 15.3894 4.13515 15.601 4.08924 15.8314C4.04334 16.0618 4.06684 16.3006 4.15678 16.5176C4.24671 16.7346 4.39903 16.9201 4.59444 17.0504C4.78986 17.1808 5.01957 17.2503 5.25448 17.25V17.2482Z" fill="#333333"/>
</svg>
