<svg width="24" height="24" fill="none" xmlns="http://www.w3.org/2000/svg"><path d="m20.32 4.35 1.336.769-.642 1.11-1.331-.768v1.537h-1.28V5.456l-1.331.769-.638-1.106 1.327-.77-1.336-.773.637-1.106 1.341.774V1.697h1.28v1.542l1.34-.773.643 1.106-1.346.778Z" fill="#FBC100"/><path d="M12 18.178a.638.638 0 0 1-.637-.637V9.333a.638.638 0 0 1 1.274 0v8.208a.638.638 0 0 1-.637.637Zm0-10.42a.97.97 0 1 0 0-1.94.97.97 0 0 0 0 1.94Zm3.633-5.986a1.052 1.052 0 0 0-.113-.038.658.658 0 0 0-.422 1.238c.033.01.066.023.104.037.145.052.29.108.435.164l.207-.351.15-.258.305-.53a8.902 8.902 0 0 0-.666-.262Z" fill="#333"/><path d="M22.861 12c0 5.99-4.856 10.847-10.847 10.847C6.02 22.852 1.163 17.99 1.163 12c0-5.99 4.856-10.847 10.846-10.847 1.229 0 2.405.202 3.507.577a.658.658 0 0 0-.422 1.238 9.586 9.586 0 0 0-3.085-.512c-5.268 0-9.543 4.275-9.543 9.544s4.275 9.544 9.543 9.544c5.27 0 9.544-4.27 9.544-9.544a9.525 9.525 0 0 0-.82-3.877c-.014-.028-.024-.056-.038-.084v-.005a.6.6 0 0 1-.042-.225c0-.257.15-.482.37-.59.005 0 .01-.005.015-.005l.028-.014a.654.654 0 0 1 .806.277l.056.126c.6 1.34.933 2.831.933 4.397Z" fill="#333"/><path d="m21.933 7.603-.056-.127.056.127Z" fill="#0F0"/></svg>