<svg width="48" height="48" fill="none" xmlns="http://www.w3.org/2000/svg"><path d="M40.554 14.318 28.472 2.248A.866.866 0 0 0 27.863 2H11.842A5.851 5.851 0 0 0 6 7.842v32.316A5.851 5.851 0 0 0 11.842 46H34.96a5.851 5.851 0 0 0 5.841-5.842V14.94a.895.895 0 0 0-.248-.621ZM28.746 4.97l9.086 9.085h-4.997a4.084 4.084 0 0 1-4.09-4.089V4.971Zm10.316 35.187a4.106 4.106 0 0 1-4.101 4.102H11.84a4.106 4.106 0 0 1-4.1-4.102V7.842a4.106 4.106 0 0 1 4.1-4.102h15.165v6.227a5.83 5.83 0 0 0 5.829 5.83h6.227v24.361Z" fill="#333"/><path d="M22.407 24.87h-7.83v1.74h7.83v-1.74Zm9.695 6.96H14.576v1.74h17.526v-1.74Z" fill="#FBC100" fill-opacity=".5"/></svg>