<svg width="48" height="48" fill="none" xmlns="http://www.w3.org/2000/svg"><path d="m26.076 14.289-4.3 4.295c-2.63 2.638-2.63 6.97 0 9.609A.935.935 0 1 0 23.1 26.87c-1.906-1.911-1.906-5.052 0-6.963l4.295-4.296a4.929 4.929 0 0 1 3.58-1.54c2.702 0 4.925 2.223 4.925 4.925a4.929 4.929 0 0 1-1.541 3.58l-4.31 4.27a.936.936 0 1 0 1.324 1.324l4.295-4.3a6.795 6.795 0 0 0 2.29-5.085c0-3.725-3.067-6.79-6.792-6.79-1.946 0-3.8.836-5.089 2.294Z" fill="#333"/><path d="M24.847 23.778a.935.935 0 0 0 0 1.322c1.906 1.912 1.906 5.053 0 6.964l-4.295 4.295a4.929 4.929 0 0 1-3.58 1.542c-2.701 0-4.925-2.224-4.925-4.926a4.93 4.93 0 0 1 1.541-3.58l4.31-4.295a.935.935 0 0 0-1.323-1.322l-4.286 4.3a6.791 6.791 0 0 0-1.794 4.598c0 3.725 3.066 6.79 6.79 6.79a6.792 6.792 0 0 0 4.59-1.784l4.295-4.295c2.63-2.639 2.63-6.971 0-9.61a.935.935 0 0 0-1.323 0Z" fill="#FBC100" fill-opacity=".5"/><path d="M14.57 17.889a.935.935 0 0 0 1.319-1.318l-2.146-2.15a.936.936 0 0 0-1.322 1.322l2.15 2.146Zm27.094-9.914a.936.936 0 0 0-1.323 0l-2.145 2.15a.936.936 0 0 0 0 1.322.935.935 0 0 0 .659.272.936.936 0 0 0 .663-.272l2.146-2.15a.936.936 0 0 0 0-1.322Z" fill="#333"/><path d="m8.124 40.196-2.15 2.135a.936.936 0 0 0 1.323 1.323l2.15-2.145a.935.935 0 0 0-1.323-1.323v.01Z" fill="#FBC100" fill-opacity=".5"/><path d="M26.31 8.074a.938.938 0 0 0 .934.817h.122a.938.938 0 0 0 .813-1.056l-.388-3.01A.945.945 0 0 0 26.856 4a.947.947 0 0 0-.934 1.059l.387 3.015Z" fill="#333"/><path d="m5.957 30.18.058.001a.941.941 0 0 0 .937-.936.94.94 0 0 0-.878-.935l-3.015-.374A.947.947 0 0 0 2 28.871c0 .473.356.876.825.935l3.01.388.122-.014Zm27.425 3.88a.935.935 0 0 0-1.323 1.322l2.146 2.145a.935.935 0 0 0 1.322-1.322l-2.145-2.146Z" fill="#FBC100" fill-opacity=".5"/><path d="m45.122 22.16-3.01-.393a.947.947 0 0 0-1.061.935c0 .472.354.875.823.935l3.014.383h.117c.02.002.039.002.058.002a.941.941 0 0 0 .937-.937.94.94 0 0 0-.878-.934v.009Z" fill="#333"/><path d="M21.637 43.874a.946.946 0 0 0-.935-.824.947.947 0 0 0-.935 1.062l.388 3.01a.938.938 0 0 0 .935.818.486.486 0 0 0 .117 0 .939.939 0 0 0 .808-1.043l-.378-3.023Z" fill="#FBC100" fill-opacity=".5"/></svg>