<svg width="20" height="20" fill="none" xmlns="http://www.w3.org/2000/svg"><path d="M18.583 14.127c-.023-.018-2.241-1.758-2.241-7.52C16.342 2.964 13.497 0 10.004 0S3.668 2.964 3.668 6.607c0 5.762-2.22 7.502-2.228 7.508a1.05 1.05 0 0 0-.397 1.158c.129.434.517.73.957.73h16.007c.433 0 .81-.293.943-.719a1.057 1.057 0 0 0-.367-1.157Zm-14.497-.188c.787-1.412 1.584-3.729 1.584-7.332 0-2.505 1.945-4.542 4.334-4.542 2.391 0 4.335 2.038 4.335 4.542 0 3.603.796 5.92 1.583 7.333H4.086v-.001Zm8.332 3.207c-.57-.283-1.293-.115-1.619.381a.925.925 0 0 1-.567.383 1.032 1.032 0 0 1-.688-.084.88.88 0 0 1-.336-.297c-.325-.496-1.05-.668-1.618-.385-.568.283-.766.914-.44 1.408.286.438.7.803 1.194 1.055.51.26 1.077.393 1.653.393.281 0 .564-.031.843-.096.856-.197 1.573-.676 2.016-1.348.326-.495.128-1.124-.438-1.41Z" fill="#333"/></svg>