<svg width="24" height="24" fill="none" xmlns="http://www.w3.org/2000/svg"><path d="M12 1c-1.099 0-2 .901-2 2s.901 2 2 2c1.098 0 2-.901 2-2s-.902-2-2-2Zm0 1c.558 0 1 .442 1 1s-.442 1-1 1c-.559 0-1-.442-1-1s.441-1 1-1Zm0 3.5c-1.1 0-2.106.19-2.883.586C8.34 6.483 7.75 7.15 7.75 7.992V10.5a.5.5 0 0 0 .36.477 12.98 12.98 0 0 0 3.382.523h1.016a12.98 12.98 0 0 0 3.382-.523.501.501 0 0 0 .36-.477V7.992c0-.842-.59-1.51-1.367-1.906C14.105 5.69 13.1 5.5 12 5.5Zm0 1c.977 0 1.851.182 2.43.477.578.295.82.626.82 1.015v2.102c-.886.23-1.727.382-2.75.406h-1c-1.024-.024-1.864-.177-2.75-.406V7.992c0-.39.242-.72.82-1.015.578-.295 1.453-.477 2.43-.477Zm-6.75 6c-1.099 0-2 .902-2 2 0 1.099.901 2 2 2 1.098 0 2-.901 2-2 0-1.098-.902-2-2-2Zm13.5 0c-1.099 0-2 .902-2 2 0 1.099.901 2 2 2 1.098 0 2-.901 2-2 0-1.098-.902-2-2-2Zm-13.5 1c.558 0 1 .442 1 1s-.442 1-1 1-1-.442-1-1 .442-1 1-1Zm13.5 0c.558 0 1 .442 1 1s-.442 1-1 1-1-.442-1-1 .442-1 1-1ZM5.25 17c-1.1 0-2.106.19-2.883.586C1.59 17.983 1 18.65 1 19.492V22a.5.5 0 0 0 .36.477A12.98 12.98 0 0 0 4.741 23h1.016a12.98 12.98 0 0 0 3.382-.523A.5.5 0 0 0 9.5 22v-2.508c0-.842-.59-1.51-1.367-1.906C7.355 17.189 6.35 17 5.25 17Zm13.5 0c-1.1 0-2.106.19-2.883.586-.777.397-1.367 1.064-1.367 1.906V22a.501.501 0 0 0 .36.477 12.98 12.98 0 0 0 3.382.523h1.016a12.98 12.98 0 0 0 3.382-.523A.501.501 0 0 0 23 22v-2.508c0-.842-.59-1.51-1.367-1.906-.778-.397-1.783-.586-2.883-.586Zm-13.5 1c.977 0 1.851.182 2.43.477.578.295.82.626.82 1.015v2.102c-.886.23-1.727.382-2.75.406h-1c-1.024-.024-1.864-.177-2.75-.406v-2.102c0-.39.242-.72.82-1.015.578-.295 1.453-.477 2.43-.477Zm13.5 0c.977 0 1.851.182 2.43.477.578.295.82.626.82 1.015v2.102c-.886.23-1.727.382-2.75.406h-1c-1.024-.024-1.864-.177-2.75-.406v-2.102c0-.39.242-.72.82-1.015.578-.295 1.453-.477 2.43-.477Zm-7.126-5.84a.5.5 0 0 1 .876.34v2.22l2.258 1.351a.5.5 0 1 1-.516.852L12 15.579l-2.242 1.344a.501.501 0 0 1-.68-.726.5.5 0 0 1 .164-.126L11.5 14.72v-2.218a.5.5 0 0 1 .124-.34Z" fill="#333"/><path d="M11.624 12.16a.5.5 0 0 1 .876.34v2.22l2.258 1.351a.5.5 0 1 1-.516.852L12 15.579l-2.242 1.344a.501.501 0 0 1-.778-.544.5.5 0 0 1 .262-.308L11.5 14.72V12.5a.5.5 0 0 1 .124-.34Z" fill="#FBC100"/></svg>