<svg width="24" height="24" fill="none" xmlns="http://www.w3.org/2000/svg"><path d="m17.608 17.479-.765-.43c-.661-.37-1.322-.741-1.981-1.115-1.197-.68-1.85-.578-2.794.433l-.232.252c-.197.21-.276.275-.243.28-.024-.003-.107-.026-.355-.158a10.688 10.688 0 0 1-2.29-1.627 10.703 10.703 0 0 1-1.722-2.22c-.125-.214-.151-.3-.176-.293.023-.038.09-.124.273-.31l.243-.244c.97-.985 1.043-1.64.314-2.808a491.27 491.27 0 0 1-1.257-2.03l-.401-.648c-.127-.206-.515-.832-1.188-.903-.67-.076-1.17.456-1.335.628l-.644.679a74.44 74.44 0 0 1-1.29 1.345c-.549.556-.817 1.2-.757 1.783.097 1.568.564 2.99 1.47 4.473a21.058 21.058 0 0 0 3.158 4.015 21.017 21.017 0 0 0 4.13 2.974c1.521.843 2.96 1.25 4.504 1.28l.104.003c.58 0 1.17-.293 1.672-.834.423-.454.858-.9 1.291-1.345l.65-.67c.167-.172.67-.695.572-1.361-.099-.67-.74-1.03-.951-1.149Zm-.535 1.628-.646.666c-.44.452-.88.904-1.31 1.366-.258.278-.568.45-.796.427-1.354-.026-2.606-.383-3.938-1.122a19.722 19.722 0 0 1-3.869-2.78 19.768 19.768 0 0 1-2.952-3.76c-.794-1.3-1.203-2.536-1.288-3.915-.022-.216.129-.517.395-.786.443-.449.877-.907 1.31-1.366l.638-.674c.17-.178.267-.227.274-.24.027.017.115.086.25.305l.401.649c.42.679.838 1.357 1.261 2.034.412.661.41.684-.142 1.245l-.245.246c-.754.769-.816 1.228-.287 2.132a11.963 11.963 0 0 0 1.935 2.492l.004.004.005.005.03.028a11.95 11.95 0 0 0 2.541 1.8c.926.49 1.381.411 2.119-.375l.234-.255c.538-.575.561-.578 1.238-.194.66.374 1.324.746 1.986 1.118l.764.43c.226.126.299.21.314.214-.01.03-.055.128-.226.306Z" fill="#333"/><path d="M22.364 13.403a.635.635 0 0 0 .613-.802 15.51 15.51 0 0 0-4.237-7.126 15.51 15.51 0 0 0-7.294-3.934.635.635 0 1 0-.281 1.239 14.24 14.24 0 0 1 6.697 3.612 14.242 14.242 0 0 1 3.89 6.542.635.635 0 0 0 .612.469Zm-5.25-.533a.635.635 0 1 0 1.22-.353 9.137 9.137 0 0 0-6.732-6.37.635.635 0 0 0-.284 1.238 7.865 7.865 0 0 1 5.796 5.484Zm-6.108-2.054c.028.35.33.604.684.582.331-.03.66.078.916.296.255.218.411.522.438.857a.635.635 0 1 0 1.266-.101 2.51 2.51 0 0 0-.881-1.723 2.52 2.52 0 0 0-1.841-.595.635.635 0 0 0-.582.684Z" fill="#FBC100"/></svg>