<svg width="24" height="24" fill="none" xmlns="http://www.w3.org/2000/svg"><path d="M23 4c0-.01-.002-.018-.003-.026a.313.313 0 0 0-.004-.044c-.002-.013-.006-.025-.009-.038l-.012-.038a.407.407 0 0 0-.083-.134.386.386 0 0 0-.127-.092c-.013-.006-.027-.01-.041-.015l-.024-.01c-4.444-1.2-8.31-.59-10.697 1.662C9.612 3.013 5.747 2.402 1.303 3.604c-.008.002-.015.006-.023.009l-.042.016a.404.404 0 0 0-.1.066.325.325 0 0 0-.052.057.428.428 0 0 0-.058.102l-.012.038c-.003.013-.007.025-.009.038a.43.43 0 0 0-.004.044C1.003 3.982 1 3.99 1 4v15.17l.001.013c0 .013.003.026.004.04l.007.043.002.012.009.022c.005.015.01.03.017.044l.017.032a.41.41 0 0 0 .022.035l.026.031a.396.396 0 0 0 .059.054.4.4 0 0 0 .068.042l.03.014a.35.35 0 0 0 .046.014l.03.008a.4.4 0 0 0 .052.005l.02.002.01-.001c.016 0 .031-.003.047-.005l.039-.006.012-.002c4.329-1.17 8.04-.544 10.184 1.721l.004.003.008.009.004.004c.008.008.017.013.026.02l.007.006.018.015.007.004c.012.008.025.014.038.021.008.004.015.01.024.013l.008.003a.35.35 0 0 0 .046.014l.026.008h.004a.417.417 0 0 0 .156 0h.004l.026-.008a.35.35 0 0 0 .046-.014l.008-.003.023-.013.04-.02.006-.005.018-.015.007-.006c.009-.007.018-.012.026-.02l.004-.004.008-.008.004-.004c2.142-2.265 5.855-2.892 10.184-1.721.004 0 .008 0 .012.002.013.003.027.004.04.006l.045.005h.01l.022-.001a.387.387 0 0 0 .127-.027l.03-.014a.424.424 0 0 0 .101-.069c.01-.008.017-.017.025-.026a.417.417 0 0 0 .027-.032.313.313 0 0 0 .021-.034l.019-.034.016-.043.009-.022c0-.004 0-.008.002-.011l.007-.044.004-.04.001-.012V4ZM1.82 18.648V4.32c4.127-1.042 7.663-.433 9.77 1.688v14.07c-2.309-1.874-5.787-2.39-9.77-1.431Zm10.59 1.43V6.008c2.107-2.12 5.642-2.729 9.77-1.687v14.327c-3.983-.96-7.462-.443-9.77 1.43Zm-9.483-6.601a.41.41 0 0 1 .343-.468c2.732-.418 5.416.085 7.559 1.419a.41.41 0 0 1-.434.697c-1.976-1.23-4.462-1.694-7-1.305a.41.41 0 0 1-.468-.343Zm8.033 3.879a.41.41 0 0 1-.565.131c-1.976-1.23-4.462-1.693-7-1.304a.41.41 0 0 1-.124-.811c2.73-.419 5.415.085 7.558 1.419a.41.41 0 0 1 .131.565Zm2.248-9.45a.41.41 0 0 1 .131-.566c2.143-1.333 4.828-1.837 7.56-1.419a.41.41 0 0 1-.125.811c-2.537-.388-5.025.075-7 1.305a.41.41 0 0 1-.566-.132Zm8.034.846a.41.41 0 0 1-.468.343c-2.537-.388-5.025.075-7 1.305a.41.41 0 0 1-.566-.132.41.41 0 0 1 .131-.565c2.143-1.334 4.828-1.838 7.56-1.419a.41.41 0 0 1 .343.468Zm0 2.362a.409.409 0 0 1-.468.344c-2.537-.389-5.025.074-7 1.304a.41.41 0 0 1-.566-.131.41.41 0 0 1 .131-.566c2.143-1.333 4.828-1.837 7.56-1.418a.41.41 0 0 1 .343.467Zm0 2.363a.409.409 0 0 1-.468.343c-2.537-.388-5.025.075-7 1.305a.408.408 0 0 1-.566-.132.41.41 0 0 1 .131-.565c2.143-1.334 4.828-1.838 7.56-1.419a.41.41 0 0 1 .343.468Zm0 2.363a.409.409 0 0 1-.468.343c-2.537-.388-5.025.074-7 1.305a.41.41 0 0 1-.566-.132.41.41 0 0 1 .131-.565c2.143-1.334 4.828-1.838 7.56-1.419a.41.41 0 0 1 .343.468Z" fill="#333"/><path d="m7.508 8.6 1.113.64-.535.926-1.11-.64v1.28H5.91V9.522l-1.11.641-.53-.922 1.105-.64-1.113-.645.531-.922 1.117.645v-1.29h1.067v1.286l1.117-.645.535.922-1.121.649Z" fill="#FBC100"/></svg>