<svg width="48" height="48" fill="none" xmlns="http://www.w3.org/2000/svg"><path d="M40.895 15.698h-4.667V7.534A5.543 5.543 0 0 0 30.689 2H7.556A5.543 5.543 0 0 0 2 7.538v18.729a5.543 5.543 0 0 0 5.556 5.53h2.78v6.35a1.133 1.133 0 0 0 1.938.802l7.121-7.153h1.36v2.985a4.88 4.88 0 0 0 4.854 4.876h5.597l6.02 6.01a1.134 1.134 0 0 0 1.936-.803v-5.207h1.733a4.88 4.88 0 0 0 4.876-4.876V20.574a4.881 4.881 0 0 0-4.876-4.876Zm-21.972 13.83a1.135 1.135 0 0 0-.802.331l-5.534 5.53v-4.727a1.134 1.134 0 0 0-1.134-1.134H7.556a3.27 3.27 0 0 1-3.288-3.261V7.538a3.27 3.27 0 0 1 3.288-3.27H30.69a3.27 3.27 0 0 1 3.27 3.27v18.729a3.27 3.27 0 0 1-3.27 3.261H18.923Zm24.58 5.253a2.608 2.608 0 0 1-2.608 2.608h-2.867a1.134 1.134 0 0 0-1.133 1.134v3.629l-4.419-4.41a1.135 1.135 0 0 0-.802-.33h-6.065a2.61 2.61 0 0 1-2.63-2.631v-2.985h7.71a5.543 5.543 0 0 0 5.539-5.53v-8.3h4.667a2.608 2.608 0 0 1 2.608 2.608v14.207Z" fill="#333"/><path d="M19.254 7.883a4.99 4.99 0 0 0-5.126 4.99 1.134 1.134 0 1 0 2.268 0 2.695 2.695 0 0 1 .821-1.946 2.66 2.66 0 0 1 1.973-.767 2.722 2.722 0 0 1 1.12 5.153 4.124 4.124 0 0 0-2.322 3.652v.562a1.134 1.134 0 0 0 2.268 0v-.517a1.869 1.869 0 0 1 1.066-1.674 4.99 4.99 0 0 0-2.06-9.457l-.008.004Zm-.14 15.209a1.134 1.134 0 0 0-1.134 1.134v.413a1.134 1.134 0 1 0 2.268 0v-.413a1.134 1.134 0 0 0-1.134-1.134Z" fill="#FBC100"/></svg>