<svg width="24" height="24" fill="none" xmlns="http://www.w3.org/2000/svg"><path d="M22.11 17.723a7.8 7.8 0 0 0 .948-3.721c0-4.205-3.352-7.636-7.524-7.772a7.785 7.785 0 0 0-6.736-3.896c-4.289 0-7.776 3.488-7.776 7.777a7.8 7.8 0 0 0 .947 3.722L1.5 16.669a.638.638 0 0 0 .74.74l2.837-.473a7.74 7.74 0 0 0 3.468.942 7.785 7.785 0 0 0 6.736 3.895 7.8 7.8 0 0 0 3.722-.947l2.836.474a.638.638 0 0 0 .74-.74l-.468-2.837Zm-16.912-2.1c-.037 0-.07.005-.107.01l-2.17.36.36-2.17a.658.658 0 0 0-.08-.43 6.49 6.49 0 0 1 5.597-9.76 6.49 6.49 0 0 1 6.483 6.483 6.49 6.49 0 0 1-9.76 5.597.612.612 0 0 0-.323-.09Zm15.6 2.091.361 2.17-2.17-.36a.659.659 0 0 0-.431.08 6.486 6.486 0 0 1-8.536-1.81 7.7 7.7 0 0 0 1.542-.413c.098.066.22.103.347.103h6.74a.648.648 0 0 0 0-1.294h-5.01a7.912 7.912 0 0 0 1.472-1.542h3.538c.357 0 .647-.29.647-.646a.648.648 0 0 0-.646-.647h-2.79a7.56 7.56 0 0 0 .52-1.543h2.265a.648.648 0 0 0 0-1.293H16.56c.01-.136.01-.272.01-.408 0-.886-.15-1.744-.427-2.536a6.493 6.493 0 0 1 4.73 9.703.7.7 0 0 0-.076.436Z" fill="#333"/><path d="M7.823 8.086c0-.54.441-.98.98-.98.54 0 .98.44.98.98 0 .539-.44.98-.98.98a.648.648 0 0 0-.647.646v1.904a.648.648 0 0 0 1.294 0v-1.35a2.27 2.27 0 0 0-.647-4.444A2.27 2.27 0 0 0 6.534 8.09c0 .356.291.646.647.646a.648.648 0 0 0 .642-.651Zm.975 5.034c-.337 0-.66.296-.646.647.014.352.286.647.646.647.338 0 .661-.295.647-.647-.014-.351-.286-.647-.647-.647Z" fill="#FBC100"/></svg>