<svg width="48" height="48" fill="none" xmlns="http://www.w3.org/2000/svg"><path d="M45.57 20.641a1.908 1.908 0 0 0-2.167-1.515 6.575 6.575 0 0 1-1.071.078c-1.712-.02-3.257-.944-4.132-2.465-.875-1.52-.9-3.325-.059-4.816.171-.309.377-.602.602-.88a1.906 1.906 0 0 0-.225-2.636 22.431 22.431 0 0 0-3.516-2.519 21.907 21.907 0 0 0-3.937-1.784 1.9 1.9 0 0 0-2.396 1.12c-.127.337-.288.66-.47.968-.874 1.471-2.444 2.352-4.195 2.352-1.75 0-3.32-.876-4.195-2.348a6.316 6.316 0 0 1-.47-.968 1.908 1.908 0 0 0-2.396-1.12 21.814 21.814 0 0 0-7.452 4.299 1.907 1.907 0 0 0-.23 2.635c.23.284.43.582.606.895.836 1.492.812 3.291-.063 4.807-.876 1.516-2.42 2.435-4.127 2.46a6.215 6.215 0 0 1-1.081-.079 1.908 1.908 0 0 0-2.171 1.516 21.883 21.883 0 0 0 .005 8.607 1.908 1.908 0 0 0 2.166 1.516 6.08 6.08 0 0 1 1.07-.079c1.712.025 3.258.944 4.133 2.465.875 1.52.9 3.32.059 4.812a6.616 6.616 0 0 1-.602.89 1.906 1.906 0 0 0 .225 2.635 22.436 22.436 0 0 0 3.516 2.519 21.91 21.91 0 0 0 3.936 1.785 1.904 1.904 0 0 0 2.4-1.125 6.2 6.2 0 0 1 .466-.959c.875-1.476 2.445-2.357 4.2-2.357h.005c1.756 0 3.325.876 4.196 2.348.18.303.337.63.47.963a1.902 1.902 0 0 0 2.395 1.12 21.816 21.816 0 0 0 7.453-4.298c.772-.68.875-1.84.23-2.636a6.393 6.393 0 0 1-.607-.895c-.836-1.491-.812-3.291.064-4.807.875-1.516 2.42-2.435 4.127-2.46.357-.005.719.02 1.08.079a1.916 1.916 0 0 0 2.172-1.516 22.084 22.084 0 0 0-.015-8.607Zm-1.434 8.318a.446.446 0 0 1-.503.352 8.059 8.059 0 0 0-1.326-.093c-2.23.03-4.244 1.228-5.379 3.194-1.134 1.965-1.163 4.308-.073 6.254a7.3 7.3 0 0 0 .748 1.1.448.448 0 0 1-.053.611 20.476 20.476 0 0 1-6.959 4.015.452.452 0 0 1-.557-.26 8.084 8.084 0 0 0-.577-1.187c-1.14-1.922-3.184-3.066-5.458-3.066h-.005c-2.278 0-4.322 1.154-5.462 3.075-.22.372-.415.773-.572 1.179a.443.443 0 0 1-.557.259 20.867 20.867 0 0 1-3.677-1.668 20.837 20.837 0 0 1-3.282-2.347.448.448 0 0 1-.053-.61 7.92 7.92 0 0 0 .743-1.091c1.095-1.952 1.066-4.289-.069-6.264-1.139-1.971-3.149-3.17-5.383-3.198h-.098a7.92 7.92 0 0 0-1.223.097.45.45 0 0 1-.503-.352 20.451 20.451 0 0 1-.005-8.03.446.446 0 0 1 .503-.351c.44.068.885.098 1.33.093 2.23-.03 4.245-1.223 5.38-3.193 1.134-1.966 1.163-4.309.078-6.255a7.563 7.563 0 0 0-.748-1.105.448.448 0 0 1 .053-.611 20.477 20.477 0 0 1 6.959-4.015.45.45 0 0 1 .557.26c.162.415.357.816.577 1.193 1.144 1.916 3.183 3.06 5.457 3.06h.005c2.274 0 4.318-1.148 5.457-3.07.225-.377.421-.778.578-1.193a.443.443 0 0 1 .557-.26c1.271.43 2.509.993 3.677 1.668a20.84 20.84 0 0 1 3.281 2.347c.176.157.2.43.054.611a7.998 7.998 0 0 0-.738 1.086c-1.096 1.951-1.071 4.293.068 6.269 1.14 1.976 3.15 3.169 5.389 3.198.435 0 .88-.024 1.315-.093a.453.453 0 0 1 .504.352 20.783 20.783 0 0 1-.01 8.04Z" fill="#333"/><path d="M36.553 24.21h-3.565a9.027 9.027 0 0 0-3.858-6.684l1.785-3.085a.735.735 0 0 0-.27-1.003.735.735 0 0 0-1.002.27l-1.785 3.09a8.953 8.953 0 0 0-3.858-.88 8.953 8.953 0 0 0-3.858.88l-1.785-3.09a.734.734 0 0 0-1.271.733l1.785 3.085a9.027 9.027 0 0 0-3.859 6.685h-3.564a.732.732 0 1 0 0 1.467h3.564a9.027 9.027 0 0 0 3.859 6.684l-1.785 3.086a.735.735 0 0 0 .635 1.1.734.734 0 0 0 .636-.367l1.785-3.09a8.952 8.952 0 0 0 3.858.88 8.952 8.952 0 0 0 3.858-.88l1.785 3.09a.734.734 0 0 0 1.272-.733l-1.785-3.086a9.027 9.027 0 0 0 3.858-6.684h3.565a.732.732 0 1 0 0-1.467Zm-12.558 8.294c-4.166 0-7.56-3.393-7.56-7.56 0-4.166 3.394-7.56 7.56-7.56 4.166 0 7.56 3.394 7.56 7.56 0 4.167-3.393 7.56-7.56 7.56Z" fill="#FBC100" fill-opacity=".5"/></svg>