<svg width="20" height="20" viewBox="0 0 20 20" fill="none" xmlns="http://www.w3.org/2000/svg">
<path d="M12.0667 15.8333C12.1764 15.8339 12.2851 15.8129 12.3866 15.7714C12.4881 15.73 12.5805 15.6689 12.6583 15.5916C12.7365 15.5141 12.7985 15.422 12.8408 15.3204C12.8831 15.2189 12.9048 15.11 12.9048 15C12.9048 14.8899 12.8831 14.781 12.8408 14.6795C12.7985 14.5779 12.7365 14.4858 12.6583 14.4083L8.24168 9.99995L12.6583 5.59162C12.736 5.51392 12.7977 5.42168 12.8397 5.32016C12.8818 5.21864 12.9034 5.10983 12.9034 4.99995C12.9034 4.89007 12.8818 4.78126 12.8397 4.67974C12.7977 4.57823 12.736 4.48598 12.6583 4.40828C12.5806 4.33059 12.4884 4.26895 12.3869 4.2269C12.2854 4.18485 12.1766 4.16321 12.0667 4.16321C11.9568 4.16321 11.848 4.18485 11.7465 4.2269C11.645 4.26895 11.5527 4.33059 11.475 4.40828L6.47501 9.40829C6.39691 9.48575 6.33491 9.57792 6.2926 9.67947C6.2503 9.78102 6.22851 9.88994 6.22851 9.99995C6.22851 10.11 6.2503 10.2189 6.2926 10.3204C6.33491 10.422 6.39691 10.5141 6.47501 10.5916L11.475 15.5916C11.5529 15.6689 11.6452 15.73 11.7468 15.7714C11.8483 15.8129 11.957 15.8339 12.0667 15.8333Z" fill="#333333"/>
</svg>
