<?xml version="1.0" encoding="UTF-8"?>
<!DOCTYPE svg PUBLIC "-//W3C//DTD SVG 1.1//EN" "http://www.w3.org/Graphics/SVG/1.1/DTD/svg11.dtd">
<svg xmlns="http://www.w3.org/2000/svg" xmlns:xlink="http://www.w3.org/1999/xlink">
	<defs>
		<clipPath id="dots-a">
			<path fill="#fff" d="M0 0h20v5.455H0z" transform="rotate(-90 10.136 9.864)"/>
		</clipPath>
	</defs>
<symbol id="back" viewBox="0 0 24 24">
	<path fill="#333" d="M5.414 11H20.8c.663 0 1.2.448 1.2 1s-.537 1-1.2 1H5.414l5.293 5.293a1 1 0 0 1-1.414 1.414l-7-7a.997.997 0 0 1 0-1.414l7-7a1 1 0 0 1 1.414 1.414L5.414 11z"/>
</symbol>
<symbol id="bell" viewBox="0 0 24 24">
	<g fill="none" stroke="currentColor" stroke-linecap="round" stroke-linejoin="round" stroke-width="2">
		<path d="M18 8A6 6 0 0 0 6 8c0 7-3 9-3 9h18s-3-2-3-9M13.73 21a2 2 0 0 1-3.46 0"/>
	</g>
</symbol>
<symbol id="close" viewBox="0 0 20 20">
	<path d="m11.175 10 4.417-4.408a.836.836 0 1 0-1.183-1.184L10 8.825 5.592 4.408a.837.837 0 0 0-1.183 1.184L8.825 10 4.41 14.408a.833.833 0 0 0 0 1.184.833.833 0 0 0 1.183 0L10 11.175l4.409 4.417a.833.833 0 0 0 1.183 0 .835.835 0 0 0 0-1.184L11.175 10Z"/>
</symbol>
<symbol id="daily" viewBox="0 0 20 20">
	<path fill="#BABAC0" fill-rule="evenodd" d="M16 20H4a4 4 0 0 1-4-4.001V6a4 4 0 0 1 4-4h1V0h2v2h6V0h2v2h1a4 4 0 0 1 4 4v9.999A4 4 0 0 1 16 20Zm2-14c0-1.103-.897-2-2-2h-1v2h-2V4H7v2H5V4H4c-1.104 0-2 .897-2 2v9.999C2 17.103 2.896 18 4 18h12c1.103 0 2-.897 2-2.001V6ZM7 15.001H5v-6h10v6H7Zm6-4H7v2h6v-2Z" clip-rule="evenodd"/>
</symbol>
<symbol id="delete" viewBox="0 0 20 20">
	<path fill="#BABAC0" d="M17.151 4.808a1.527 1.527 0 0 0-1.527-1.528h-2.81a3.055 3.055 0 0 0-5.989 0h-2.81a1.528 1.528 0 0 0-.279 3.027l.492 10.32a2.663 2.663 0 0 0 2.664 2.54h5.855a2.663 2.663 0 0 0 2.664-2.54l.489-10.32a1.527 1.527 0 0 0 1.251-1.499ZM9.82 2.058a1.833 1.833 0 0 1 1.72 1.222H8.1a1.833 1.833 0 0 1 1.72-1.222Zm4.37 14.51a1.442 1.442 0 0 1-1.442 1.377H6.892a1.442 1.442 0 0 1-1.443-1.376L4.96 6.336h9.715l-.486 10.233Zm1.435-11.455H4.014a.306.306 0 0 1 0-.61h11.61a.306.306 0 0 1 0 .61Z"/>
	<path fill="#BABAC0" d="M7.986 15.5a.611.611 0 0 0 .611-.61V8.78a.611.611 0 0 0-1.222 0v6.11a.611.611 0 0 0 .611.61ZM11.652 15.5a.611.611 0 0 0 .611-.61V8.78a.61.61 0 1 0-1.222 0v6.11a.611.611 0 0 0 .611.61Z"/>
</symbol>
<symbol id="dots" viewBox="0 0 6 20">
	<g clip-path="url(#dots-a)">
		<path fill="#BABAC0" fill-rule="evenodd" d="M5.727 2.727a2.728 2.728 0 1 1-5.455 0 2.728 2.728 0 0 1 5.455 0Zm-3.636 0a.908.908 0 1 0 1.816.002.908.908 0 0 0-1.816-.002ZM5.727 10a2.728 2.728 0 1 1-5.455 0 2.728 2.728 0 0 1 5.455 0Zm-3.636 0a.908.908 0 1 0 1.816.002A.908.908 0 0 0 2.091 10Zm3.636 7.273a2.728 2.728 0 1 1-5.455-.001 2.728 2.728 0 0 1 5.455 0Zm-3.636 0a.908.908 0 1 0 1.816.001.908.908 0 0 0-1.816-.001Z" clip-rule="evenodd"/>
	</g>

</symbol>
<symbol id="download" viewBox="0 0 24 24">
	<path fill="#FBC100" d="M12.229 1a.943.943 0 0 0-.943.943v14.8l-3.752-3.535c-.35-.374-1.026-.385-1.375-.01-.354.381-.228 1.035.079 1.375l5.342 5.029c.164.154.424.246.649.255a.91.91 0 0 0 .648-.255l5.343-5.029c.318-.327.43-1.003.078-1.375-.352-.371-1.052-.312-1.375.01l-3.752 3.536V1.943A.943.943 0 0 0 12.23 1ZM5.943 21.114a.943.943 0 1 0 0 1.886h12.571a.943.943 0 0 0 0-1.886H5.943Z"/>
</symbol>
<symbol id="edit" viewBox="0 0 20 20">
	<path fill="#BABAC0" d="M17.258 6.55 13.45 2.742a.833.833 0 0 0-1.183 0l-9.525 9.525a.833.833 0 0 0-.242.591v3.809a.833.833 0 0 0 .833.833h3.809a.833.833 0 0 0 .591-.242l9.525-9.525a.832.832 0 0 0 0-1.183ZM6.8 15.833H4.167V13.2l6.15-6.15 2.633 2.633-6.15 6.15Zm7.367-7.325-2.675-2.633 1.366-1.367 2.634 2.634-1.325 1.366Z"/>
</symbol>
<symbol id="fi-rr-user" viewBox="0 0 24 24">
	<path d="M12.25 12a5.5 5.5 0 1 0 0-11 5.5 5.5 0 0 0 0 11Zm0-9.167a3.667 3.667 0 1 1 0 7.334 3.667 3.667 0 0 1 0-7.334ZM12.25 13.833A8.26 8.26 0 0 0 4 22.083a.917.917 0 0 0 1.833 0 6.417 6.417 0 0 1 12.834 0 .917.917 0 1 0 1.833 0 8.26 8.26 0 0 0-8.25-8.25Z"/>
</symbol>
<symbol id="Icon_search">
	<ellipse cx="10" cy="9.8" rx="7" ry="6.86"/>
	<path d="m21 20.58-6-5.88"/>
</symbol>
<symbol id="link-arr-2" viewBox="0 0 16 12">
	<path stroke="#ADADAD" stroke-linecap="round" stroke-linejoin="round" stroke-width="2" d="M15 6H1m9.5 4.5L15 6l-4.5 4.5ZM15 6l-4.5-4.5L15 6Z"/>
</symbol>
<symbol id="logout">
	<path stroke="2" stroke-width="#333" d="M12.778 1.667h3.704a1.852 1.852 0 0 1 1.851 1.851v12.963a1.852 1.852 0 0 1-1.851 1.852h-3.704m-4.63-3.703 4.63-4.63-4.63-4.63m4.63 4.63H1.667"/>
</symbol>
<symbol id="notifications-icon" viewBox="0 0 24 24">
	<g fill="none" stroke-linecap="round" stroke-linejoin="round" stroke-width="2">
		<path d="M18 8A6 6 0 0 0 6 8c0 7-3 9-3 9h18s-3-2-3-9M13.73 21a2 2 0 0 1-3.46 0"/>
	</g>
</symbol>
<symbol id="out" viewBox="0 0 24 24">
	<g fill="none" stroke="currentColor" stroke-linecap="round" stroke-linejoin="round" stroke-width="2">
		<path d="M9 21H5a2 2 0 0 1-2-2V5a2 2 0 0 1 2-2h4M16 17l5-5-5-5M21 12H9"/>
	</g>
</symbol>
<symbol id="plus" viewBox="0 0 18 18">
	<path fill="#333" fill-rule="evenodd" d="M1.5 9.75h15a.75.75 0 0 0 0-1.5h-15a.75.75 0 0 0 0 1.5Z" clip-rule="evenodd"/>
	<path fill="#000" fill-rule="evenodd" d="M9.75 16.5v-15a.75.75 0 0 0-1.5 0v15a.75.75 0 0 0 1.5 0Z" clip-rule="evenodd"/>
</symbol>
<symbol id="prof" viewBox="0 0 24 24">
	<g fill="none" stroke="currentColor" stroke-linecap="round" stroke-linejoin="round" stroke-width="2">
		<path d="M20 21v-2a4 4 0 0 0-4-4H8a4 4 0 0 0-4 4v2"/>
		<circle cx="12" cy="7" r="4"/>
	</g>
</symbol>
<symbol id="reply" viewBox="0 0 20 20">
	<path fill="#336FEE" d="M10 1.667C4.955 1.667.835 5.01.835 9.107c0 2.287 1.316 4.466 3.516 5.868l-.777 1.617c-.15.302-.086.669.13.928.172.172.388.28.625.28.086 0 .194-.021.28-.043L8.34 16.42c.54.086 1.1.13 1.66.13 5.048 0 9.167-3.344 9.167-7.442 0-4.098-4.12-7.441-9.166-7.441Zm0 13.588c-.539 0-1.056-.043-1.574-.13a.892.892 0 0 0-.41.044l-2.804.992.475-1.014a.843.843 0 0 0-.345-1.1c-2.028-1.165-3.214-3.02-3.214-4.96 0-3.387 3.537-6.148 7.873-6.148 4.335 0 7.872 2.761 7.872 6.147 0 3.387-3.537 6.169-7.872 6.169Z"/>
</symbol>
<symbol id="small-arrow-down" viewBox="0 0 24 24">
	<path fill="#333" d="M12 7.48a1 1 0 0 0-.71.29l-6 6a1.005 1.005 0 0 0 1.42 1.42L12 9.89l5.29 5.3a1.004 1.004 0 1 0 1.42-1.42l-6-6a1.001 1.001 0 0 0-.71-.29Z"/>
</symbol>
</svg>