<svg width="180" height="30" fill="none" xmlns="http://www.w3.org/2000/svg"><g clip-path="url(#a)" fill="#333"><path d="M2.663 24.588v-7.422H.703v-3.824h1.96V9.37H7.29v3.973h3.842v3.824H7.29v6.672c0 1.05.47 1.5 1.49 1.5.862 0 1.646-.225 2.274-.525v3.599c-.941.524-2.117.9-3.686.9-2.823 0-4.705-1.05-4.705-4.724Zm10.661-3.374c0-4.498 3.372-8.172 8.077-8.172 5.489 0 7.998 4.049 7.998 8.547 0 .375 0 .75-.078 1.2H17.95c.47 2.024 1.96 3.074 3.999 3.074 1.568 0 2.666-.45 3.999-1.575l2.666 2.25c-1.568 1.799-3.764 2.923-6.665 2.923-5.019-.075-8.626-3.373-8.626-8.247Zm11.527-1.2c-.314-2.023-1.49-3.298-3.45-3.298-1.96 0-3.215 1.35-3.529 3.299h6.979Zm11.467 1.049-5.567-7.722h5.018l3.058 4.574 3.059-4.574h4.861l-5.567 7.647 5.802 8.022h-5.018l-3.293-4.873-3.294 4.873h-4.861l5.802-7.947Zm13.498-7.721h4.627v2.25c1.098-1.35 2.43-2.55 4.783-2.55 3.529 0 5.567 2.25 5.567 5.848v10.122h-4.626v-8.697c0-2.1-1.02-3.224-2.823-3.224s-2.901 1.05-2.901 3.224v8.771h-4.627V13.342Zm18.247 7.872c0-4.498 3.763-8.172 8.939-8.172 5.097 0 8.86 3.599 8.86 8.172 0 4.499-3.763 8.172-8.939 8.172-5.097 0-8.86-3.598-8.86-8.172Zm13.173 0c0-2.324-1.725-4.348-4.313-4.348-2.666 0-4.234 1.95-4.234 4.348 0 2.325 1.725 4.349 4.313 4.349 2.666 0 4.234-1.95 4.234-4.349Zm7.92-7.872h4.627v2.25c1.097-1.35 2.509-2.55 4.861-2.55 2.117 0 3.764.9 4.627 2.474 1.411-1.574 3.136-2.474 5.41-2.474 3.45 0 5.567 2.025 5.567 5.773v10.197h-4.626v-8.697c0-2.1-.941-3.224-2.744-3.224-1.725 0-2.823 1.05-2.823 3.224v8.771h-4.627v-8.771c0-2.1-.94-3.224-2.744-3.224-1.725 0-2.823 1.05-2.823 3.224v8.771h-4.626V13.342h-.079Zm28.055 11.162c0-3.449 2.744-5.023 6.587-5.023 1.646 0 2.823.3 3.999.674v-.3c0-1.874-1.176-2.848-3.529-2.848-1.803 0-3.058.3-4.548.824l-1.176-3.373c1.803-.75 3.607-1.275 6.351-1.275 2.51 0 4.392.675 5.568 1.724 1.254 1.2 1.803 2.924 1.803 5.023v9.072h-4.469v-1.724c-1.098 1.2-2.666 2.024-4.94 2.024-3.058 0-5.646-1.65-5.646-4.798Zm10.743-.975v-.825c-.785-.374-1.804-.6-2.98-.6-1.96 0-3.215.75-3.215 2.25 0 1.2 1.019 1.874 2.509 1.874 2.196 0 3.686-1.124 3.686-2.699Zm8.417-10.194h4.626v3.15c.941-2.175 2.51-3.6 5.254-3.45v4.649h-.235c-3.058 0-5.019 1.8-5.019 5.548v5.773h-4.626v-15.67Zm13.562 11.253v-7.422h-1.96v-3.824h1.96V9.37h4.626v3.973h3.843v3.824h-3.843v6.672c0 1.05.471 1.5 1.49 1.5.863 0 1.647-.225 2.274-.525v3.599c-.941.524-2.117.9-3.685.9-2.823 0-4.705-1.05-4.705-4.724Zm29.726-12.14-2.352 3.966-4.705-2.722v5.444h-4.705v-5.444l-4.705 2.722-2.352-3.966 4.783-2.722-4.705-2.722 2.274-3.966 4.705 2.722V.317h4.705V5.76l4.705-2.722 2.274 3.966-4.705 2.722 4.783 2.722Z"/></g><defs><clipPath id="a"><path fill="#fff" d="M0 0h180v29.7H0z"/></clipPath></defs></svg>